<svg id="Layer_1" data-name="Layer 1" xmlns="http://www.w3.org/2000/svg" viewBox="0 0 212 209.32"><defs><style>.cls-1,.cls-2{fill:#1d1d1b;}.cls-2,.cls-5{stroke:#1d1d1b;}.cls-2,.cls-4,.cls-5{stroke-miterlimit:10;}.cls-3,.cls-4,.cls-5{fill:#fff;}.cls-4{stroke:#fff;}</style></defs><path class="cls-1" d="M73,206.62h0a21.09,21.09,0,0,0,9.25-17.46s1.05-18.45,1.28-21.12,5.31-3.33,5.31-3.33H67.12c-2.75,0-2.1,3.7-2.1,3.7h0a21.31,21.31,0,0,0-3.94-.38h-12a18,18,0,0,0,18-18v-1a18,18,0,0,0-18-18H31.58a18,18,0,0,0-18,18v1a18,18,0,0,0,18,18H21.12A21.11,21.11,0,0,0,0,189.16H0a21,21,0,0,0,7.07,15.73H7a26.68,26.68,0,0,0,16.2,8.29H86.49C75.41,213.18,73,206.62,73,206.62Z" transform="translate(0 -3.87)"/><path class="cls-2" d="M42.89,164.84V136.48A2.52,2.52,0,0,0,40.37,134H40a2.72,2.72,0,0,0-2.72,2.72v23Z" transform="translate(0 -3.87)"/><path class="cls-3" d="M38,175.59v30.47a2.62,2.62,0,0,0,2.52,2.71h.42a2.83,2.83,0,0,0,2.72-2.92V181.18Z" transform="translate(0 -3.87)"/><path class="cls-1" d="M115.6,135.63s-16-10.95-18.75-34.09,4.86-39.33,4.86-39.33,10.8-24.3,33.47-27.54A130,130,0,0,1,177,34.13s11.61,3.24,17.82,8.37l-13.76-2.21h0a35.67,35.67,0,0,0-5.31-.41c-18.14,0-32.85,13.81-32.85,30.83s14.71,30.83,32.85,30.83A33.54,33.54,0,0,0,202.45,88.7h0l.29-.39c.49-.66.95-1.33,1.38-2,5.19-8.1,19-35.2-9.8-59.25C160-1.64,117.73,4.4,117.73,4.4,56.42,10.82,17,52.48,19.3,107c2.39,56.63,44.07,102.62,98.43,102.62,0,0,88.48,2.65,94.27-83.2C212,126.45,175.38,174.51,115.6,135.63Z" transform="translate(0 -3.87)"/><path class="cls-4" d="M78.94,201.21a21,21,0,0,0,3.27-11.29s1.05-18.45,1.28-21.12,5.31-3.33,5.31-3.33H67.12c-2.75,0-2.1,3.7-2.1,3.7h0a21.31,21.31,0,0,0-3.94-.38h-12a18,18,0,0,0,18-18v-1a18,18,0,0,0-18-18H31.58a18,18,0,0,0-8.12,1.92s8,24.53,16.7,35.16c0,0,14.24,18.81,26.51,25.61Z" transform="translate(0 -3.87)"/><path class="cls-5" d="M31.58,168.8" transform="translate(0 -3.87)"/><path class="cls-2" d="M42.89,165.6V137.24a2.52,2.52,0,0,0-2.52-2.52H40a2.72,2.72,0,0,0-2.72,2.72v23Z" transform="translate(0 -3.87)"/></svg>